Coordinates
version=1
nRows=8
nColumns=40
inDegrees=yes

Units are S.I. units (second, meters, Newtons, ...)
Angles are in degrees.

endheader
time	pelvis_tilt	pelvis_list	pelvis_rotation	pelvis_tx	pelvis_ty	pelvis_tz	hip_flexion_r	hip_adduction_r	hip_rotation_r	knee_angle_r	knee_angle_r_beta	ankle_angle_r	subtalar_angle_r	mtp_angle_r	hip_flexion_l	hip_adduction_l	hip_rotation_l	knee_angle_l	knee_angle_l_beta	ankle_angle_l	subtalar_angle_l	mtp_angle_l	lumbar_extension	lumbar_bending	lumbar_rotation	arm_flex_r	arm_add_r	arm_rot_r	elbow_flex_r	pro_sup_r	wrist_flex_r	wrist_dev_r	arm_flex_l	arm_add_l	arm_rot_l	elbow_flex_l	pro_sup_l	wrist_flex_l	wrist_dev_l
      3.06000000	    -18.39709744	     -7.51365374	     12.25980485	     -1.82226162	      0.94426665	      0.35155507	     71.93271082	     -4.40509233	     -6.42069716	     76.15773659	     76.15773659	     -1.73870605	      0.00000000	      0.00000000	    -12.71341797	    -11.98289918	      1.05831924	     15.64615981	     15.64615981	    -28.92254010	      0.00000000	      0.00000000	    -14.24548278	     13.30355388	    -11.72213550	    -61.22222106	     -9.35788753	    -37.37095811	     87.46996440	     87.40530369	      0.00000000	      0.00000000	     47.47696966	    -24.39445353	     -3.90665730	    135.48791566	     34.24448200	      0.00000000	      0.00000000
      3.06500000	    -18.20689508	     -7.50526833	     11.53400079	     -1.79133207	      0.94637372	      0.35152318	     71.41156727	     -3.69549778	     -6.04033758	     71.74043906	     71.74043906	     -1.69273671	      0.00000000	      0.00000000	    -14.29176599	    -11.87588455	      0.98072923	     15.34009104	     15.34009104	    -31.19332420	      0.00000000	      0.00000000	    -14.50280723	     13.51633747	    -11.19280498	    -61.56396815	     -9.02348846	    -38.23872910	     87.87760330	     87.42584325	      0.00000000	      0.00000000	     46.95831921	    -25.01333976	     -4.11945212	    137.17942646	     34.30598595	      0.00000000	      0.00000000
      3.07000000	    -17.98834977	     -7.42317561	     10.96305362	     -1.76058915	      0.94851100	      0.35144485	     70.65691102	     -3.15611557	     -5.68340182	     67.16419683	     67.16419683	     -1.71573636	      0.00000000	      0.00000000	    -15.63959187	    -11.68033101	      1.22083360	     15.53810822	     15.53810822	    -32.73342437	      0.00000000	      0.00000000	    -14.82349784	     13.65620788	    -10.79308182	    -61.70220840	     -8.67496639	    -39.03125626	     88.24058799	     87.39002970	      0.00000000	      0.00000000	     46.21899918	    -25.75778330	     -4.14538711	    138.79650919	     34.42151483	      0.00000000	      0.00000000
      3.07500000	    -17.73416671	     -7.26681995	     10.54931674	     -1.73001968	      0.95066053	      0.35129263	     69.66757509	     -2.79626761	     -5.37117512	     62.44792728	     62.44792728	     -1.82548007	      0.00000000	      0.00000000	    -16.77217599	    -11.41174552	      1.79610345	     16.23958505	     16.23958505	    -33.55672193	      0.00000000	      0.00000000	    -15.20553406	     13.72873703	    -10.52109428	    -61.64845689	     -8.32301329	    -39.74465312	     88.56029565	     87.36239510	      0.00000000	      0.00000000	     45.23447911	    -26.61947299	     -3.98395292	    140.31215549	     34.53538151	      0.00000000	      0.00000000
      3.08000000	    -17.43332525	     -7.03980277	     10.28314682	     -1.69960073	      0.95281410	      0.35104763	     68.44078659	     -2.60922934	     -5.13018933	     57.61327048	     57.61327048	     -2.04818403	      0.00000000	      0.00000000	    -17.71676886	    -11.08256097	      2.68998165	     17.42571345	     17.42571345	    -33.72304199	      0.00000000	      0.00000000	    -15.65404642	     13.74360099	    -10.36469094	    -61.41900273	     -7.98548929	    -40.36877391	     88.84188831	     87.34141728	      0.00000000	      0.00000000	     43.98681350	    -27.58198070	     -3.64592480	    141.69104387	     34.64775034	      0.00000000	      0.00000000
      3.08500000	    -17.07254583	     -6.74939629	     10.14167741	     -1.66930263	      0.95496932	      0.35070779	     66.97452996	     -2.56964641	     -4.98484880	     52.68632836	     52.68632836	     -2.41755914	      0.00000000	      0.00000000	    -18.50759033	    -10.70196023	      3.84165934	     19.06444856	     19.06444856	    -33.33222991	      0.00000000	      0.00000000	    -16.18079672	     13.71288554	    -10.29978264	    -61.03630794	     -7.68330109	    -40.89177789	     89.09884212	     87.32330052	      0.00000000	      0.00000000	     42.46822809	    -28.62335413	     -3.15174555	    142.89531147	     34.76036868	      0.00000000	      0.00000000
      3.09000000	    -16.63878488	     -6.40633579	     10.09035628	     -1.63909124	      0.95712226	      0.35029217	     65.27139982	     -2.63486574	     -4.94960081	     47.70153802	     47.70153802	     -2.97079240	      0.00000000	      0.00000000	    -19.18030460	    -10.27778724	      5.14725836	     21.11407361	     21.11407361	    -32.51623321	      0.00000000	      0.00000000	    -16.80067265	     13.64811590	    -10.29244931	    -60.52119523	     -7.43947929	    -41.30543765	     89.34020308	     87.34614573	      0.00000000	      0.00000000	     40.68693342	    -29.71555810	     -2.53369265	    143.85461983	     35.32324227	      0.00000000	      0.00000000
      3.09500000	    -16.12329645	     -6.02372191	     10.08774365	     -1.60893267	      0.95925754	      0.34983554	     63.34460764	     -2.75238188	     -5.02304103	     42.70731889	     42.70731889	     -3.74336495	      0.00000000	      0.00000000	    -19.76465556	     -9.81833574	      6.47463182	     23.52759901	     23.52759901	    -31.42494536	      0.00000000	      0.00000000	    -17.52507637	     13.55903608	    -10.30319520	    -59.89906113	     -7.27550255	    -41.59169453	     89.58458058	     87.30435629	      0.00000000	      0.00000000	     38.65715089	    -30.83023815	     -1.81395400	    144.56826299	     35.88005471	      0.00000000	      0.00000000
